<svg width="600" height="600" viewBox="0 0 1144 665" fill="none" xmlns="http://www.w3.org/2000/svg">
<g id="pcMan">
<g id="HalfWhite">
<path id="Vector" opacity="0.2" d="M235.66 144.448V165.546H216.66C222.613 158.303 228.947 151.27 235.66 144.448Z" />
<path id="Vector_2" opacity="0.2" d="M270.53 139.099H245.02V165.546H270.53V139.099Z" />
<path id="Vector_3" opacity="0.2" d="M305.39 139.099H279.88V165.546H305.39V139.099Z" />
<path id="Vector_4" opacity="0.2" d="M340.26 139.099H314.75V165.546H340.26V139.099Z" />
<path id="Vector_5" opacity="0.2" d="M375.12 139.099H349.61V165.546H375.12V139.099Z" />
<path id="Vector_6" opacity="0.2" d="M409.99 139.099H384.48V165.546H409.99V139.099Z" />
<path id="Vector_7" opacity="0.2" d="M479.72 139.099H454.21V165.546H479.72V139.099Z" />
<path id="Vector_8" opacity="0.2" d="M514.59 139.099H489.08V165.546H514.59V139.099Z" />
<path id="Vector_9" opacity="0.2" d="M549.45 139.099H523.94V165.546H549.45V139.099Z" />
<path id="Vector_10" opacity="0.2" d="M619.19 139.099H593.68V165.546H619.19V139.099Z" />
<path id="Vector_11" opacity="0.2" d="M654.05 139.099H628.54V165.546H654.05V139.099Z" />
<path id="Vector_12" opacity="0.2" d="M688.92 139.099H663.41V165.546H688.92V139.099Z" />
<path id="Vector_13" opacity="0.2" d="M723.79 139.099H698.28V165.546H723.79V139.099Z" />
<path id="Vector_14" opacity="0.2" d="M758.65 139.099H733.14V165.546H758.65V139.099Z" />
<path id="Vector_15" opacity="0.2" d="M793.52 139.099H768.01V165.546H793.52V139.099Z" />
<path id="Vector_16" opacity="0.2" d="M898.12 139.099H872.61V165.546H898.12V139.099Z" />
<path id="Vector_17" opacity="0.2" d="M932.98 139.099H907.47V165.546H932.98V139.099Z" />
<path id="Vector_18" d="M200.8 186.499V199.043H192.62C195.22 194.772 197.947 190.59 200.8 186.499Z" />
<path id="Vector_19" opacity="0.2" d="M235.66 172.596H210.15V199.043H235.66V172.596Z" />
<path id="Vector_20" d="M270.53 172.596H245.02V199.043H270.53V172.596Z" />
<path id="Vector_21" opacity="0.2" d="M305.39 172.596H279.88V199.043H305.39V172.596Z" />
<path id="Vector_22" opacity="0.7" d="M340.26 172.596H314.75V199.043H340.26V172.596Z" />
<path id="Vector_23" opacity="0.2" d="M375.12 172.596H349.61V199.043H375.12V172.596Z" />
<path id="Vector_24" opacity="0.4" d="M409.99 172.596H384.48V199.043H409.99V172.596Z" />
<path id="Vector_25" opacity="0.4" d="M479.72 172.596H454.21V199.043H479.72V172.596Z" />
<path id="Vector_26" opacity="0.2" d="M514.59 172.596H489.08V199.043H514.59V172.596Z" />
<path id="Vector_27" opacity="0.4" d="M549.45 172.596H523.94V199.043H549.45V172.596Z" />
<path id="Vector_28" opacity="0.4" d="M619.19 172.596H593.68V199.043H619.19V172.596Z" />
<path id="Vector_29" opacity="0.4" d="M654.05 172.596H628.54V199.043H654.05V172.596Z" />
<path id="Vector_30" opacity="0.2" d="M688.92 172.596H663.41V199.043H688.92V172.596Z" />
<path id="Vector_31" opacity="0.4" d="M723.79 172.596H698.28V199.043H723.79V172.596Z" />
<path id="Vector_32" opacity="0.4" d="M758.65 172.596H733.14V199.043H758.65V172.596Z" />
<path id="Vector_33" opacity="0.2" d="M793.52 172.596H768.01V199.043H793.52V172.596Z" />
<path id="Vector_34" opacity="0.2" d="M828.38 172.596H802.87V199.043H828.38V172.596Z" />
<path id="Vector_35" opacity="0.4" d="M863.25 172.596H837.74V199.043H863.25V172.596Z" />
<path id="Vector_36" opacity="0.2" d="M898.12 172.596H872.61V199.043H898.12V172.596Z" />
<path id="Vector_37" opacity="0.2" d="M131.06 214.065V232.551H105.55V223.521C113.804 219.688 122.333 216.527 131.06 214.065Z" />
<path id="Vector_38" opacity="0.2" d="M165.93 208.094V232.551H140.42V211.722L165.93 208.094Z" />
<path id="Vector_39" opacity="0.2" d="M375.12 206.103H349.61V232.551H375.12V206.103Z" />
<path id="Vector_40" opacity="0.4" d="M409.99 206.103H384.48V232.551H409.99V206.103Z" />
<path id="Vector_41" opacity="0.4" d="M444.86 206.103H419.35V232.551H444.86V206.103Z" />
<path id="Vector_42" opacity="0.2" d="M514.59 206.103H489.08V232.551H514.59V206.103Z" />
<path id="Vector_43" opacity="0.4" d="M549.45 206.103H523.94V232.551H549.45V206.103Z" />
<path id="Vector_44" opacity="0.2" d="M619.19 206.103H593.68V232.551H619.19V206.103Z" />
<path id="Vector_45" opacity="0.4" d="M654.05 206.103H628.54V232.551H654.05V206.103Z" />
<path id="Vector_46" opacity="0.2" d="M688.92 206.103H663.41V232.551H688.92V206.103Z" />
<path id="Vector_47" d="M723.79 206.103H698.28V232.551H723.79V206.103Z" />
<path id="Vector_48" opacity="0.2" d="M758.65 206.103H733.14V232.551H758.65V206.103Z" />
<path id="Vector_49" opacity="0.7" d="M793.52 206.103H768.01V232.551H793.52V206.103Z" />
<path id="Vector_50" opacity="0.4" d="M863.25 206.103H837.74V232.551H863.25V206.103Z" />
<path id="Vector_51" opacity="0.2" d="M898.12 206.103H872.61V232.551H898.12V206.103Z" />
<path id="Vector_52" d="M967.85 206.103H942.34V232.551H967.85V206.103Z" />
<path id="Vector_53" opacity="0.2" d="M131.06 239.6H105.55V266.048H131.06V239.6Z" />
<path id="Vector_54" opacity="0.2" d="M165.93 239.6H140.42V266.048H165.93V239.6Z" />
<path id="Vector_55" opacity="0.2" d="M200.79 239.6H175.28V266.048H200.79V239.6Z" />
<path id="Vector_56" opacity="0.2" d="M235.66 239.6H210.15V266.048H235.66V239.6Z" />
</g>
<g id="AnotherHalfWhite">
<path id="Vector_57" d="M270.53 239.6H245.02V266.048H270.53V239.6Z" />
<path id="Vector_58" opacity="0.2" d="M375.12 239.6H349.61V266.048H375.12V239.6Z" />
<path id="Vector_59" opacity="0.2" d="M409.99 239.6H384.48V266.048H409.99V239.6Z" />
<path id="Vector_60" opacity="0.4" d="M444.86 239.6H419.35V266.048H444.86V239.6Z" />
<path id="Vector_61" opacity="0.4" d="M479.72 239.6H454.21V266.048H479.72V239.6Z" />
<path id="Vector_62" opacity="0.2" d="M549.45 239.6H523.94V266.048H549.45V239.6Z"/>
<path id="Vector_63" opacity="0.4" d="M584.32 239.6H558.81V266.048H584.32V239.6Z"/>
<path id="Vector_64" opacity="0.4" d="M619.19 239.6H593.68V266.048H619.19V239.6Z"/>
<path id="Vector_65" opacity="0.4" d="M654.05 239.6H628.54V266.048H654.05V239.6Z"/>
<path id="Vector_66" opacity="0.4" d="M688.92 239.6H663.41V266.048H688.92V239.6Z"/>
<path id="Vector_67" opacity="0.2" d="M723.79 239.6H698.28V266.048H723.79V239.6Z"/>
<path id="Vector_68" opacity="0.2" d="M758.65 239.6H733.14V266.048H758.65V239.6Z"/>
<path id="Vector_69" opacity="0.2" d="M793.52 239.6H768.01V266.048H793.52V239.6Z"/>
<path id="Vector_70" opacity="0.2" d="M828.38 239.6H802.87V266.048H828.38V239.6Z"/>
<path id="Vector_71" opacity="0.4" d="M932.98 239.6H907.47V266.048H932.98V239.6Z"/>
<path id="Vector_72" opacity="0.2" d="M967.85 239.6H942.34V266.048H967.85V239.6Z"/>
<path id="Vector_73" opacity="0.2" d="M131.06 273.108H105.55V299.555H131.06V273.108Z"/>
<path id="Vector_74" opacity="0.2" d="M165.93 273.108H140.42V299.555H165.93V273.108Z"/>
<path id="Vector_75" opacity="0.4" d="M200.79 273.108H175.28V299.555H200.79V273.108Z"/>
<path id="Vector_76" opacity="0.2" d="M235.66 273.108H210.15V299.555H235.66V273.108Z"/>
<path id="Vector_77" opacity="0.2" d="M375.12 273.108H349.61V299.555H375.12V273.108Z"/>
<path id="Vector_78" opacity="0.2" d="M409.99 273.108H384.48V299.555H409.99V273.108Z"/>
<path id="Vector_79" opacity="0.4" d="M444.86 273.108H419.35V299.555H444.86V273.108Z"/>
<path id="Vector_80" opacity="0.2" d="M514.59 273.108H489.08V299.555H514.59V273.108Z"/>
<path id="Vector_81" opacity="0.2" d="M654.05 273.108H628.54V299.555H654.05V273.108Z"/>
<path id="Vector_82" d="M688.92 273.108H663.41V299.555H688.92V273.108Z"/>
<path id="Vector_83" opacity="0.2" d="M723.79 273.108H698.28V299.555H723.79V273.108Z"/>
<path id="Vector_84" opacity="0.2" d="M758.65 273.108H733.14V299.555H758.65V273.108Z"/>
<path id="Vector_85" opacity="0.2" d="M793.52 273.108H768.01V299.555H793.52V273.108Z"/>
<path id="Vector_86" opacity="0.2" d="M828.38 273.108H802.87V299.555H828.38V273.108Z"/>
<path id="Vector_87" opacity="0.2" d="M863.25 273.108H837.74V299.555H863.25V273.108Z"/>
<path id="Vector_88" opacity="0.2" d="M932.98 273.108H907.47V299.555H932.98V273.108Z"/>
<path id="Vector_89" opacity="0.2" d="M967.85 273.108H942.34V299.555H967.85V273.108Z"/>
<path id="Vector_90" opacity="0.2" d="M131.06 306.605H105.55V333.052H131.06V306.605Z"/>
<path id="Vector_91" opacity="0.2" d="M165.93 306.605H140.42V333.052H165.93V306.605Z"/>
<path id="Vector_92" opacity="0.2" d="M200.79 306.605H175.28V333.052H200.79V306.605Z"/>
<path id="Vector_93" opacity="0.4" d="M235.66 306.605H210.15V333.052H235.66V306.605Z"/>
<path id="Vector_94" opacity="0.2" d="M270.53 306.605H245.02V333.052H270.53V306.605Z"/>
<path id="Vector_95" opacity="0.2" d="M305.39 306.605H279.88V333.052H305.39V306.605Z"/>
<path id="Vector_96" opacity="0.2" d="M375.12 306.605H349.61V333.052H375.12V306.605Z"/>
<path id="Vector_97" opacity="0.2" d="M409.99 306.605H384.48V333.052H409.99V306.605Z"/>
<path id="Vector_98" opacity="0.2" d="M444.86 306.605H419.35V333.052H444.86V306.605Z"/>
<path id="Vector_99" opacity="0.2" d="M514.59 306.605H489.08V333.052H514.59V306.605Z"/>
<path id="Vector_100" opacity="0.2" d="M619.19 306.605H593.68V333.052H619.19V306.605Z"/>
<path id="Vector_101" opacity="0.2" d="M654.05 306.605H628.54V333.052H654.05V306.605Z"/>
<path id="Vector_102" opacity="0.2" d="M688.92 306.605H663.41V333.052H688.92V306.605Z"/>
<path id="Vector_103" opacity="0.2" d="M723.79 306.605H698.28V333.052H723.79V306.605Z"/>
<path id="Vector_104" opacity="0.2" d="M758.65 306.605H733.14V333.052H758.65V306.605Z"/>
<path id="Vector_105" opacity="0.2" d="M793.52 306.605H768.01V333.052H793.52V306.605Z"/>
<path id="Vector_106" opacity="0.2" d="M828.38 306.605H802.87V333.052H828.38V306.605Z"/>
<path id="Vector_107" opacity="0.2" d="M863.25 306.605H837.74V333.052H863.25V306.605Z"/>
<path id="Vector_108" opacity="0.2" d="M898.12 306.605H872.61V333.052H898.12V306.605Z"/>
<path id="Vector_109" opacity="0.2" d="M932.98 306.605H907.47V333.052H932.98V306.605Z"/>
<path id="Vector_110" opacity="0.4" d="M967.85 306.605H942.34V333.052H967.85V306.605Z"/>
<path id="Vector_111" opacity="0.2" d="M305.39 340.112H279.88V366.559H305.39V340.112Z"/>
<path id="Vector_112" opacity="0.2" d="M340.26 340.112H314.75V366.559H340.26V340.112Z"/>
<path id="Vector_113" opacity="0.2" d="M375.12 340.112H349.61V366.559H375.12V340.112Z"/>
<path id="Vector_114" opacity="0.2" d="M409.99 340.112H384.48V366.559H409.99V340.112Z"/>
<path id="Vector_115" opacity="0.2" d="M444.86 340.112H419.35V366.559H444.86V340.112Z"/>
<path id="Vector_116" opacity="0.2" d="M479.72 340.112H454.21V366.559H479.72V340.112Z"/>
<path id="Vector_117" opacity="0.2" d="M549.45 340.112H523.94V366.559H549.45V340.112Z"/>
<path id="Vector_118" opacity="0.2" d="M584.32 340.112H558.81V366.559H584.32V340.112Z"/>
<path id="Vector_119" opacity="0.2" d="M619.19 340.112H593.68V366.559H619.19V340.112Z"/>
<path id="Vector_120" opacity="0.2" d="M688.92 340.112H663.41V366.559H688.92V340.112Z"/>
<path id="Vector_121" opacity="0.2" d="M723.79 340.112H698.28V366.559H723.79V340.112Z"/>
<path id="Vector_122" opacity="0.2" d="M758.65 340.112H733.14V366.559H758.65V340.112Z"/>
<path id="Vector_123" opacity="0.2" d="M793.52 340.112H768.01V366.559H793.52V340.112Z"/>
<path id="Vector_124" opacity="0.2" d="M828.38 340.112H802.87V366.559H828.38V340.112Z"/>
<path id="Vector_125" opacity="0.2" d="M863.25 340.112H837.74V366.559H863.25V340.112Z"/>
<path id="Vector_126" opacity="0.2" d="M898.12 340.112H872.61V366.559H898.12V340.112Z"/>
<path id="Vector_127" opacity="0.2" d="M932.98 340.112H907.47V366.559H932.98V340.112Z"/>
<path id="Vector_128" opacity="0.2" d="M967.85 340.112H942.34V366.559H967.85V340.112Z"/>
</g>
<g id="BlueSquare">
<path id="Vector_129" d="M444.86 139.099H419.35V165.546H444.86V139.099Z" />
<path id="Vector_130" d="M584.32 139.099H558.81V165.546H584.32V139.099Z" />
<path id="Vector_131" d="M828.38 139.099H802.87V165.546H828.38V139.099Z" />
<path id="Vector_132" d="M863.25 139.099H837.74V165.546H863.25V139.099Z" />
<path id="Vector_133" d="M967.85 139.099H942.34V165.546H967.85V139.099Z" />
<path id="Vector_134" d="M1002.71 139.099H977.2V165.546H1002.71V139.099Z" />
<path id="Vector_135" d="M444.86 172.596H419.35V199.043H444.86V172.596Z" />
<path id="Vector_136" d="M584.32 172.596H558.81V199.043H584.32V172.596Z" />
<path id="Vector_137" d="M932.98 172.596H907.47V199.043H932.98V172.596Z" />
<path id="Vector_138" d="M967.85 172.596H942.34V199.043H967.85V172.596Z" />
<path id="Vector_139" d="M1002.71 172.596H977.2V199.043H1002.71V172.596Z" />
<path id="Vector_140" d="M200.79 206.103H175.28V232.551H200.79V206.103Z" />
<path id="Vector_141" opacity="0.7" d="M235.66 206.103H210.15V232.551H235.66V206.103Z" />
<path id="Vector_142" d="M270.53 206.103H245.02V232.551H270.53V206.103Z" />
<path id="Vector_143" opacity="0.7" d="M305.39 206.103H279.88V232.551H305.39V206.103Z" />
<path id="Vector_144" opacity="0.7" d="M340.26 206.103H314.75V232.551H340.26V206.103Z" />
<path id="Vector_145" d="M479.72 206.103H454.21V232.551H479.72V206.103Z" />
<path id="Vector_146" d="M584.32 206.103H558.81V232.551H584.32V206.103Z" />
<path id="Vector_147" opacity="0.7" d="M828.38 206.103H802.87V232.551H828.38V206.103Z" />
<path id="Vector_148" d="M932.98 206.103H907.47V232.551H932.98V206.103Z" />
<path id="Vector_149" d="M1002.71 206.103H977.2V232.551H1002.71V206.103Z" />
<path id="Vector_150" opacity="0.7" d="M305.39 239.6H279.88V266.048H305.39V239.6Z" />
<path id="Vector_151" opacity="0.7" d="M340.26 239.6H314.75V266.048H340.26V239.6Z" />
<path id="Vector_152" d="M514.59 239.6H489.08V266.048H514.59V239.6Z" />
<path id="Vector_153" opacity="0.7" d="M863.25 239.6H837.74V266.048H863.25V239.6Z" />
<path id="Vector_154" opacity="0.7" d="M898.12 239.6H872.61V266.048H898.12V239.6Z" />
<path id="Vector_155" d="M1002.71 239.6H977.2V266.048H1002.71V239.6Z" />
<path id="Vector_156" opacity="0.2" d="M270.53 273.108H245.02V299.555H270.53V273.108Z" />
<path id="Vector_157" opacity="0.7" d="M305.39 273.108H279.88V299.555H305.39V273.108Z" />
<path id="Vector_158" opacity="0.7" d="M340.26 273.108H314.75V299.555H340.26V273.108Z" />
<path id="Vector_159" d="M479.72 273.108H454.21V299.555H479.72V273.108Z" />
<path id="Vector_160" d="M549.45 273.108H523.94V299.555H549.45V273.108Z" />
<path id="Vector_161" d="M584.32 273.108H558.81V299.555H584.32V273.108Z" />
<path id="Vector_162" d="M619.19 273.108H593.68V299.555H619.19V273.108Z" />
<path id="Vector_163" opacity="0.7" d="M898.12 273.108H872.61V299.555H898.12V273.108Z" />
<path id="Vector_164" d="M1002.71 273.108H977.2V299.555H1002.71V273.108Z" />
<path id="Vector_165" opacity="0.7" d="M340.26 306.605H314.75V333.052H340.26V306.605Z" />
<path id="Vector_166" d="M479.72 306.605H454.21V333.052H479.72V306.605Z" />
<path id="Vector_167" d="M549.45 306.605H523.94V333.052H549.45V306.605Z" />
<path id="Vector_168" d="M584.32 306.605H558.81V333.052H584.32V306.605Z" />
<path id="Vector_169" d="M1002.71 306.605H977.2V333.052H1002.71V306.605Z" />
<path id="Vector_170" opacity="0.7" d="M131.06 340.112H105.55V366.559H131.06V340.112Z" />
<path id="Vector_171" opacity="0.7" d="M165.93 340.112H140.42V366.559H165.93V340.112Z" />
<path id="Vector_172" opacity="0.7" d="M200.79 340.112H175.28V366.559H200.79V340.112Z" />
<path id="Vector_173" opacity="0.7" d="M235.66 340.112H210.15V366.559H235.66V340.112Z" />
<path id="Vector_174" opacity="0.7" d="M270.53 340.112H245.02V366.559H270.53V340.112Z" />
<path id="Vector_175" d="M514.59 340.112H489.08V366.559H514.59V340.112Z" />
<path id="Vector_176" d="M654.05 340.112H628.54V366.559H654.05V340.112Z" />
<path id="Vector_177" d="M1002.71 340.112H977.2V366.559H1002.71V340.112Z" />
</g>
<path id="Vector_178" d="M734.52 437.41C753.778 437.41 769.39 421.225 769.39 401.259C769.39 381.293 753.778 365.108 734.52 365.108C715.262 365.108 699.65 381.293 699.65 401.259C699.65 421.225 715.262 437.41 734.52 437.41Z" fill="#767D9F"/>
<g id="Neck">
<path id="Vector_179" d="M732.71 355.269C736.19 371.014 739.143 386.876 741.57 402.856C742.3 407.604 742.95 412.611 741.29 417.101C739.9 420.843 737.07 423.767 734.85 427.043C732.63 430.319 730.95 434.518 732.3 438.271C733.65 442.024 737.59 444.076 741.35 445.134C752.11 448.14 763.58 445.953 774.29 442.698C779.139 441.403 783.788 439.407 788.1 436.767C792.64 433.782 796.36 429.635 799.78 425.363C815.39 405.738 825.61 382.183 835.23 358.774C829.049 359.357 822.822 358.407 817.065 356.002C811.307 353.597 806.185 349.807 802.12 344.943C798.18 340.143 795.29 333.456 797.51 327.588C791 331.29 783.27 331.538 776.26 334.068C771.913 335.789 767.728 337.924 763.76 340.444C758.973 343.312 754.213 346.236 749.48 349.215C744.07 352.595 739 355.601 732.71 355.269Z" fill="#F9865F"/>
</g>
<path id="ShirtMid" d="M805.64 382.411C799.53 394.738 791.58 406.588 780.23 413.928C768.88 421.268 753.6 423.259 742.23 416.002C736.63 412.456 732.39 407.065 727.5 402.524C722.61 397.983 716.5 394.095 709.93 394.686C702.69 395.339 697.02 401.197 692.17 406.806C684.81 415.328 677.7 424.213 672.49 434.3C662.49 453.687 660.12 476.35 660.56 498.329C661 520.308 664.07 542.173 664.14 564.152C664.24 591.19 659.82 618.01 655.35 644.644C696.45 639.398 737.6 650.865 778.79 655.208C805.15 658.018 831.71 657.956 858.21 657.883C862.87 657.883 867.83 657.759 871.71 655.084C874.082 653.29 875.999 650.929 877.3 648.2C880.96 641.202 882.43 633.219 883.45 625.33C886.04 605.404 886.12 585.229 886.19 565.116C886.37 516.389 886.54 467.486 880.57 419.143C879.1 407.251 877.22 395.298 872.82 384.174C868.42 373.049 861.24 362.817 851.2 356.856C844.75 353.02 829.8 346.343 822.2 350.21C813.67 354.523 809.73 374.159 805.64 382.411Z" fill="#FBFDFE"/>
<path id="ShirtLeft" d="M808.68 520.007C807.13 489.942 800.82 457.855 814.25 431.169C817.55 424.617 805.71 416.437 809.37 410.092C813.837 402.356 817.224 394.004 819.43 385.283C820.19 382.287 820.8 379.114 820.08 376.108C818.75 370.623 813.52 367.358 809.08 364.019C804.18 360.329 801.66 349.08 800.08 342.994C798.5 336.909 812.65 344.238 818.34 342.072C826.24 339.076 836.28 340.962 844.16 344C848.56 345.68 853.34 345.825 858.03 345.949C867.14 346.198 876.28 346.436 885.32 345.275C889.38 344.746 893.45 343.948 897.53 344.187C907.94 344.798 916.99 352.18 923.15 360.909C929.31 369.639 933.23 379.809 938.28 389.264C942.49 397.143 947.51 404.587 951.1 412.788C954.28 420.045 956.29 427.841 958.28 435.596L963.41 455.491C964.307 458.337 964.733 461.32 964.67 464.314C964.41 467.496 963.05 470.462 961.67 473.292C956.452 483.782 950.195 493.681 943 502.828C932.21 516.545 919.11 528.913 912.7 545.335C910.2 551.731 908.81 558.532 907.54 565.313C902.42 592.431 898.781 619.827 896.64 647.371C884.955 641.765 872.707 637.519 860.12 634.712C853.846 633.32 847.503 632.282 841.12 631.602C835.53 631.001 828.32 632.141 823 630.565C814.1 627.942 813.12 612.339 811.77 604.17C809.61 591.159 809.18 577.92 809.1 564.774C809 549.824 809.45 534.905 808.68 520.007Z" fill="#382C74"/>
<g id="ShirtRight">
<path id="Vector_180" d="M613.23 463.785C617.44 488.667 622.08 513.621 631.23 536.999C631 537.228 630.77 537.435 630.54 537.642C629.73 538.358 628.89 539.031 628.01 539.716C625.96 541.209 623.71 542.473 622.01 544.423C621.366 545.168 620.858 546.029 620.51 546.963C620.196 547.692 620.034 548.481 620.034 549.28C620.034 550.078 620.196 550.868 620.51 551.597C615.74 553.784 610.2 553.11 604.85 552.903C600.24 552.727 595.77 552.903 592.07 555.526C586.93 559.196 585.38 566.246 584.55 572.653C584.243 574.989 583.98 577.329 583.76 579.672C583.547 581.849 583.373 584.033 583.24 586.224C582.787 593.472 582.723 600.74 583.05 607.995C583.103 609.322 583.173 610.649 583.26 611.976C566.92 611.572 552.03 602.739 537.94 594.155C534.72 592.195 531.4 590.132 529.31 586.898C527.384 583.721 526.569 579.955 527 576.23C527 575.701 527.09 575.193 527.16 574.654C527.608 571.577 528.376 568.56 529.45 565.655C533.858 553.28 540.356 541.818 548.64 531.805C552.22 527.472 556.25 523.232 557.92 517.789C558.65 515.415 558.92 512.895 559.66 510.531C562.98 500.288 574.96 495.447 579.06 485.505C580.06 483.13 580.52 480.528 581.76 478.247C582.876 476.352 584.317 474.683 586.01 473.323C586.74 472.69 587.5 472.079 588.25 471.467C595.277 465.758 602.047 459.728 608.56 453.376C609.773 452.194 610.973 450.998 612.16 449.789C612.002 454.481 612.361 459.177 613.23 463.785Z" fill="#4C4981"/>
<path id="Vector_181" d="M614.72 440.095C622.445 437.684 630.555 436.889 638.579 437.756C646.603 438.623 654.38 441.134 661.46 445.144C668.66 449.291 675.12 455.076 679.08 462.541C685.03 473.738 684.77 487.236 684.35 500.019C684.14 506.416 683.87 513.04 681.15 518.784C678 525.429 672.06 529.991 666 533.723C662.204 536.234 658.044 538.1 653.68 539.249C646.96 540.763 639.98 539.477 633.21 538.212C625.85 536.802 617.95 535.102 612.84 529.421C609.84 526.124 608.2 521.842 606.58 517.654C604.253 511.606 601.92 505.566 599.58 499.532C595.53 489.05 594.16 480.331 599.51 470.119C601.94 465.464 604.91 461.11 607.31 456.424C608.51 454.04 612.81 440.707 614.72 440.095Z" fill="#382C74"/>
<path id="Vector_182" d="M714 390.197C712.56 391.773 711 393.255 709.47 394.728L709.06 395.111L707.44 396.666C704.5 399.297 701.955 402.369 699.89 405.779L699.72 406.07C694.62 415.535 696.51 427.188 697.93 437.939C699.691 451.336 700.483 464.852 700.3 478.372C700.04 497.033 697.92 515.57 697.88 534.211C697.88 538.44 697.97 542.66 698.15 546.89C698.44 553.763 698.94 560.627 699.54 567.49C700.19 575.017 700.97 582.533 701.7 590.049C702.28 595.865 702.83 601.671 703.29 607.477C703.52 610.483 703.74 613.48 703.92 616.486C704.13 620.011 704.3 623.546 704.4 627.071C704.47 629.311 704.51 631.54 704.51 633.779C704.51 635.054 704.51 636.319 704.51 637.584C704.51 640.01 704.447 642.429 704.32 644.841C704.187 647.944 703.983 651.055 703.71 654.172C703.4 657.562 702.85 661.263 700.55 663.647C700.41 663.793 700.26 663.927 700.11 664.062L696.87 663.647C674.535 660.875 651.986 660.458 629.57 662.403C630.06 658.899 630.51 655.405 630.95 651.891C631.15 650.232 631.35 648.563 631.54 646.894C631.76 644.986 631.97 643.079 632.17 641.171C632.4 639.098 632.61 637.024 632.81 634.951C633.33 629.608 633.787 624.262 634.18 618.912C634.76 611.109 635.2 603.292 635.5 595.461C635.647 591.722 635.76 587.979 635.84 584.233C635.953 579.589 636.007 574.941 636 570.289C636 565.769 635.963 561.242 635.89 556.708C635.89 555.215 635.83 553.722 635.71 552.239C635.624 550.905 635.447 549.578 635.18 548.269C634.437 545.251 633.433 542.308 632.18 539.477C631.96 538.938 631.75 538.44 631.54 537.87C631.42 537.59 631.31 537.3 631.2 537.02C636.96 531.702 641.06 524.579 645 517.571C651.39 506.281 657.93 494.493 659 481.451C660.07 468.409 653.82 453.76 641.8 449.779C638.53 448.742 635.07 448.451 631.7 447.84C628.52 447.259 621.89 445.943 618.21 443.579C616.21 445.708 614.21 447.798 612.21 449.851C612.331 446.719 613.07 443.646 614.38 440.821L615.8 440.894C615.684 440.562 615.63 440.21 615.64 439.857C615.64 438.748 616.38 437.493 617.96 436.104C622.67 431.957 630.08 431.034 633.05 425.425C634.29 423.093 634.5 420.314 635.5 417.868C638.37 410.89 646.61 408.319 651.57 402.742C656.53 397.164 657.77 389.264 661.78 383.044C664.775 378.501 668.93 374.912 673.78 372.676C674.18 372.479 674.59 372.282 675 372.106C683.3 368.426 693.16 367.586 701.76 367.607C705.1 367.607 713.76 367.71 718 369.462C718.688 369.717 719.317 370.116 719.85 370.634C724.37 375.735 717.34 386.506 714 390.197Z" fill="#382C74"/>
</g>
<path id="Desk" d="M1035 619.316V650.315C1014.49 659.15 992.482 663.661 970.27 663.585H700.58C700.44 663.73 700.29 663.865 700.14 664L696.9 663.585H217.17C176.92 663.585 139.62 652.326 109.03 633.147V585.819L339.75 558.211H339.93L474.29 570.009L509.06 573.119L527.12 574.706L564.5 577.992L583.73 579.682L611.73 582.149L615.67 582.491L635.85 584.264L663.23 586.597L701.73 589.977L765.91 595.627L811.06 599.598L885.2 606.119L899.3 607.353L900.82 607.487L902.14 607.601L920.76 609.239L941.2 611.043L943.57 611.251L1035 619.316Z" fill="#4D4C5E"/>
<g id="LeftHand">
<path id="Vector_183" d="M852.94 541.603C840.66 546.527 828.31 551.472 815.45 554.406C793.89 559.331 771.33 558.553 749.94 564.183C738.64 567.169 727.41 571.979 715.8 571.005C710.61 570.569 705.6 568.931 700.55 567.687C672.18 560.43 639.93 562.783 616.89 581.444C609.01 587.82 602.56 595.772 596.71 604.253C595.458 606.084 594.612 608.18 594.232 610.39C593.853 612.6 593.948 614.87 594.513 617.037C595.078 619.205 596.097 621.216 597.499 622.927C598.9 624.638 600.649 626.007 602.62 626.937C611.58 631.208 621.178 633.863 631 634.785C644.13 635.987 657.32 634.059 670.38 632.131C689.76 629.28 709.15 626.418 728.48 623.215C735.42 622.064 742.36 620.872 749.34 619.959C799.57 613.376 850.71 621.38 901.07 615.885C906.16 615.325 911.34 614.599 915.97 612.35C927.69 606.648 933.49 591.615 931.07 578.407C928.65 565.199 919.31 554.22 908.07 547.481C898.65 541.81 888.49 539.519 878 537.113C868.26 534.76 862.32 537.87 852.94 541.603Z" fill="#F9865F"/>
<path id="Vector_184" d="M963.67 462.645C969.21 470.171 970.39 480.269 969.79 489.693C969.19 499.117 967.03 508.437 966.71 517.903C966.27 530.883 969.29 543.821 968.78 556.76C968.42 565.81 966.35 574.685 963.9 583.373C961.01 593.626 956.83 604.647 947.7 609.571C935.58 616.113 910.16 612.433 897.41 617.554C898.57 610.058 909.69 599.204 910.85 591.708C911.65 586.525 912.46 581.196 911.6 576.002C910.5 569.377 906.75 563.499 902.3 558.605C895.22 550.819 885.98 544.962 875.83 543.054C865.68 541.146 840.83 542.712 832.71 549.357C831.71 542.494 850.31 535.88 856.85 534.397C860.11 533.64 863.85 534.065 866.46 531.919C871.46 527.855 867.83 519.758 868.07 513.258C868.26 508.074 871.18 503.326 871.77 498.142C872.77 489.849 867.55 481.399 869.6 473.261C870.36 470.254 872.05 467.61 873.22 464.749C876.78 455.989 875.22 445.994 873.32 436.685C872.14 430.837 870.99 424.244 874.13 419.257C877.04 414.602 882.73 412.84 888.02 412.062C905.732 409.578 923.678 414.378 938.02 425.436C945.21 431.034 946.15 436.84 949.02 444.833C951.77 452.443 959 456.341 963.67 462.645Z" fill="#382C74"/>
<path id="Vector_185" opacity="0.1" d="M960.67 462.644C966.21 470.171 967.39 480.269 966.79 489.693C966.19 499.117 964.03 508.437 963.71 517.903C963.27 530.883 966.29 543.821 965.78 556.76C965.42 565.81 963.35 574.685 960.9 583.373C958.01 593.626 953.83 604.647 944.7 609.571C932.58 616.113 907.16 612.433 894.41 617.554C895.57 610.058 906.69 599.204 907.85 591.708C908.65 586.524 909.46 581.196 908.6 576.002C907.5 569.377 903.75 563.498 899.3 558.605C892.22 550.819 882.98 544.962 872.83 543.054C862.68 541.146 837.83 542.712 829.71 549.357C828.71 542.494 847.31 535.88 853.85 534.397C857.11 533.64 860.85 534.065 863.46 531.919C868.46 527.855 864.83 519.758 865.07 513.258C865.26 508.074 868.18 503.326 868.77 498.142C869.77 489.849 864.55 481.399 866.6 473.261C867.36 470.254 869.05 467.61 870.22 464.749C873.78 455.989 872.22 445.994 870.32 436.685C869.14 430.837 867.99 424.244 871.13 419.257C874.04 414.602 882.3 431.179 887.59 430.412C905.06 427.872 920.87 414.446 934.98 425.436C942.17 431.034 943.11 436.84 945.98 444.833C948.77 452.443 956 456.341 960.67 462.644Z" fill="#382C74"/>
<path id="Vector_186" opacity="0.05" d="M677.17 555.816C681.68 555.381 686.25 554.645 690.31 552.571C695.31 549.99 699.2 545.542 703.83 542.266C714.01 535.009 727.63 534.034 739.3 538.202C750.97 542.37 760.71 551.296 767.53 561.954C772.06 569.055 775.46 578.117 772.26 585.954C771.162 588.35 769.778 590.593 768.14 592.631L759.8 603.931C758.216 606.307 756.309 608.433 754.14 610.245C751.02 612.598 747.14 613.563 743.32 614.143C733.17 615.678 722.84 614.807 712.61 615.512C695.04 616.725 677.88 622.593 660.27 622.396C650.15 622.282 640.16 620.167 630.27 618.052L586.5 608.721C578.88 607.104 570.27 604.74 566.68 597.576C565.07 594.352 564.77 590.62 564.58 586.991C564.06 576.997 564.58 565.883 571.26 558.678C577.54 551.918 587.47 549.782 594.97 544.785C604.15 538.658 607.18 540.638 616.86 545.242C635.745 554.108 656.523 557.751 677.17 555.816Z" fill="#F6C1AE"/>
<path id="Vector_187" d="M677.17 555.816C681.68 555.381 686.25 554.645 690.31 552.571C695.31 549.99 699.2 545.542 703.83 542.266C714.01 535.009 727.63 534.034 739.3 538.202C750.97 542.37 760.71 551.296 767.53 561.954C772.06 569.055 775.46 578.117 772.26 585.954C771.162 588.35 769.778 590.593 768.14 592.631L759.8 603.931C758.216 606.307 756.309 608.433 754.14 610.245C751.02 612.598 747.14 613.563 743.32 614.143C733.17 615.678 722.84 614.807 712.61 615.512C695.04 616.725 677.88 622.593 660.27 622.396C650.15 622.282 640.16 620.167 630.27 618.052L586.5 608.721C578.88 607.104 570.27 604.74 566.68 597.576C565.07 594.352 564.77 590.62 564.58 586.991C564.06 576.997 564.58 565.883 571.26 558.678C577.54 551.918 587.47 549.782 594.97 544.785C604.15 538.658 607.18 540.638 616.86 545.242C635.745 554.108 656.523 557.751 677.17 555.816Z" fill="#F9865F"/>
</g>
<g id="Laptop">
<path id="Vector_188" d="M764 618.176L474.86 567.013L463.65 625.786L596.19 642.239L637 647.537L749.26 624.614L764 618.176Z" fill="#3C8178"/>
<path id="Vector_189" d="M614.33 644.592L759.19 616.362C759.915 616.218 760.661 616.242 761.376 616.433C762.09 616.623 762.756 616.976 763.323 617.464C763.891 617.953 764.348 618.566 764.66 619.259C764.972 619.952 765.133 620.708 765.13 621.473C765.133 622.686 764.726 623.863 763.978 624.797C763.231 625.731 762.191 626.363 761.04 626.584L619.57 654.047L614.33 644.592Z" fill="#59C3F8"/>
<path id="Vector_190" d="M302 413.524L356.37 621.846C357.037 624.399 358.439 626.68 360.388 628.385C362.337 630.091 364.741 631.141 367.28 631.395L612 655.768C613.995 655.968 616.006 655.669 617.866 654.896C619.726 654.124 621.381 652.901 622.691 651.329C624.001 649.757 624.929 647.883 625.397 645.863C625.865 643.843 625.859 641.737 625.38 639.72L565.84 388.435C565.132 385.448 563.425 382.818 561.022 381.013C558.62 379.208 555.678 378.344 552.72 378.575L313.13 397.154C311.29 397.302 309.505 397.869 307.901 398.815C306.298 399.761 304.915 401.062 303.852 402.625C302.789 404.189 302.072 405.976 301.752 407.86C301.431 409.744 301.516 411.678 302 413.524Z" fill="#59C3F8"/>
</g>
<g id="Earphones">
<path id="Vector_191" d="M787.11 454.174C801.966 454.174 814.01 441.526 814.01 425.923C814.01 410.32 801.966 397.672 787.11 397.672C772.253 397.672 760.21 410.32 760.21 425.923C760.21 441.526 772.253 454.174 787.11 454.174Z" fill="white"/>
<path id="Vector_192" d="M809.2 374.387C809.2 374.387 814.87 391.866 798.14 399.217L796 403.094L806.48 413.814C806.48 413.814 819.4 389.378 818 380.701C818 380.701 816 371.888 809.2 374.387Z" fill="white"/>
<path id="Vector_193" d="M818.13 384.671L814.01 377.621L808.01 376.74C809.29 353.528 803.48 346.613 803.48 346.613L802.13 346.478L796.25 345.887L785.19 333.985V330.605C800.73 332.523 809.32 340.174 813.96 349.142C822.16 364.88 818.13 384.671 818.13 384.671Z" fill="#6C63FF"/>
<path id="Vector_194" opacity="0.1" d="M802.18 342.206V346.478L796.3 345.887L785.24 333.985C785.24 333.985 802.35 337.956 802.18 342.206Z" fill="black" stroke="#4C4981" stroke-miterlimit="10"/>
<path id="Vector_195" opacity="0.1" d="M818.13 384.671L814.01 377.621V349.184C822.16 364.88 818.13 384.671 818.13 384.671Z" fill="black" stroke="#4C4981" stroke-miterlimit="10"/>
<path id="Vector_196" d="M742.266 438.336C749.168 434.205 748.871 420.276 741.603 407.225C734.335 394.174 722.848 386.943 715.946 391.074C709.045 395.205 709.342 409.134 716.61 422.185C723.878 435.236 735.365 442.467 742.266 438.336Z" fill="white"/>
<g id="Earbuds">
<path id="Vector_197" d="M790.2 454.174C804.526 454.174 816.14 442.134 816.14 427.281C816.14 412.429 804.526 400.388 790.2 400.388C775.874 400.388 764.26 412.429 764.26 427.281C764.26 442.134 775.874 454.174 790.2 454.174Z" fill="#6C63FF"/>
<path id="Vector_198" d="M733 412.425C740.27 425.477 749.19 434.196 742.29 438.343C735.39 442.49 715.29 440.417 708.02 427.354C700.75 414.291 707.35 396.252 714.25 392.105C721.15 387.958 725.72 399.341 733 412.425Z" fill="#6C63FF"/>
</g>
</g>
<g id="Face">
<path id="Vector_199" opacity="0.1" d="M797.73 318.393C797.73 360.101 770.2 400.295 729.97 400.295C710.649 400.295 692.119 392.338 678.457 378.174C664.795 364.01 657.12 344.799 657.12 324.768C657.12 304.738 664.795 285.527 678.457 271.363C692.119 257.199 710.649 249.242 729.97 249.242C770.2 249.283 797.73 276.674 797.73 318.393Z" fill="black"/>
<path id="Vector_200" d="M729.97 398.263C770.204 398.263 802.82 364.449 802.82 322.736C802.82 281.024 770.204 247.21 729.97 247.21C689.736 247.21 657.12 281.024 657.12 322.736C657.12 364.449 689.736 398.263 729.97 398.263Z" fill="#F9865F"/>
</g>
<g id="Hair">
<path id="Vector_201" d="M723.57 289.271C732.24 292.578 737.37 301.867 745.15 307.04C756.15 314.297 770.47 312.421 783.03 308.834C790.03 306.854 797.35 304.438 804.24 306.636C805.253 307.101 806.371 307.266 807.47 307.113C808.97 306.667 809.71 304.946 810.2 303.412C818.72 277.078 814.89 247.251 802.03 222.888C798.71 216.605 794.73 210.53 789.25 206.165C784.93 202.734 779.85 200.484 774.73 198.566C765.373 195.082 755.696 192.605 745.85 191.174C744.111 190.847 742.335 190.787 740.58 190.998C738.17 191.402 736.01 192.75 733.86 193.953C724.652 199.07 714.44 201.946 704 202.361C690 202.91 674 199.489 663.21 208.799C650.21 219.964 653.45 241.746 645.02 256.904C639.44 266.929 628.68 274.207 626.91 285.621C626.449 289.11 626.663 292.659 627.54 296.061C631.66 313.624 648.06 327.226 665.54 327.547C668.224 327.759 670.912 327.188 673.3 325.899C674.864 324.792 676.245 323.43 677.39 321.866C688.84 307.807 701.94 281.018 723.57 289.271Z" fill="black"/>
<path id="Vector_202" opacity="0.1" d="M810.2 295.771C809.71 297.305 808.97 299.026 807.47 299.472C806.372 299.625 805.254 299.46 804.24 298.995C797.35 296.797 789.99 299.213 783.04 301.193C770.47 304.78 756.12 306.698 745.16 299.399C737.37 294.216 732.25 284.885 723.57 281.63C701.94 273.336 688.84 300.167 677.36 314.225C676.216 315.789 674.834 317.151 673.27 318.258C670.883 319.547 668.194 320.118 665.51 319.906C648.09 319.585 631.68 305.983 627.51 288.42C627.28 287.384 627.08 286.347 626.93 285.31C626.93 285.404 626.93 285.486 626.88 285.58C626.419 289.069 626.633 292.618 627.51 296.02C631.63 313.582 648.04 327.184 665.51 327.505C668.194 327.718 670.883 327.147 673.27 325.857C674.834 324.75 676.216 323.388 677.36 321.824C688.84 307.766 701.94 280.977 723.57 289.229C732.25 292.536 737.37 301.825 745.16 306.999C756.16 314.256 770.47 312.379 783.04 308.792C790.04 306.812 797.35 304.397 804.24 306.594C805.254 307.06 806.372 307.225 807.47 307.071C808.97 306.626 809.71 304.905 810.2 303.37C813.637 292.595 815.155 281.263 814.68 269.925C814.386 278.718 812.877 287.422 810.2 295.771Z" fill="black"/>
</g>
<g id="Eye">
<circle id="Ellipse 1" cx="688" cy="346" r="10" fill="black"/>
<circle id="Ellipse 2" cx="735" cy="341" r="10" fill="black"/>
<g id="Iris">
<circle id="Ellipse 3" cx="734.5" cy="342.5" r="2.5" fill="#C4C4C4"/>
<circle id="Ellipse 4" cx="687.5" cy="346.5" r="2.5" fill="#C4C4C4"/>
</g>
</g>
<path id="Cloud" opacity="0.1" d="M1144 396.23C1144.01 413 1141.71 429.691 1137.15 445.83C1132.74 461.388 1126.26 476.282 1117.88 490.11C1117.88 540.21 1084.06 583.51 1034.97 604.11C1014.46 612.632 992.452 616.983 970.24 616.91H217.17C176.92 616.91 139.62 606.05 109.03 587.55C100.275 582.28 91.9705 576.296 84.2 569.66C50.2 540.44 29.12 500.06 29.12 455.46C10.0381 426.077 -0.0799637 391.775 -1.81681e-05 356.74C-1.81681e-05 283.38 43.39 220.3 105.55 192.45C113.804 188.754 122.333 185.704 131.06 183.33C134.147 182.49 137.267 181.737 140.42 181.07C148.826 179.28 157.352 178.11 165.93 177.57C169.03 177.377 172.147 177.267 175.28 177.24H177C180.46 177.24 183.89 177.36 187.3 177.56L188.42 175.66C189.793 173.367 191.2 171.097 192.64 168.85C195.24 164.757 197.967 160.723 200.82 156.75C203.807 152.557 206.923 148.43 210.17 144.37L211 143.37C212.84 141.077 214.72 138.81 216.64 136.57C222.64 129.577 228.973 122.793 235.64 116.22C307.75 45.54 420.72 0.0400085 547.72 0.0400085C646.54 0.0400085 736.87 27.59 806.06 73.11C832.272 58.2766 861.882 50.4933 892 50.52C989.74 50.52 1069 130.89 1069 230.03C1068.99 236.303 1068.65 242.571 1068 248.81C1091.56 265.488 1110.76 287.588 1123.99 313.245C1137.22 338.902 1144.08 367.364 1144 396.23V396.23Z" fill="#F9865F"/>
</g>
</svg>
